<svg xmlns="http://www.w3.org/2000/svg" xmlns:xlink="http://www.w3.org/1999/xlink" width="87" zoomAndPan="magnify" viewBox="0 0 65.25 42" height="56" preserveAspectRatio="xMidYMid meet" version="1.0"><defs><g/><clipPath id="14579fc50c"><path d="M 0.390625 0 L 64.125 0 L 64.125 41.023438 L 0.390625 41.023438 Z M 0.390625 0 " clip-rule="nonzero"/></clipPath><clipPath id="bf821f426f"><path d="M 0.390625 0 L 41.34375 0 L 41.34375 40.949219 L 0.390625 40.949219 Z M 0.390625 0 " clip-rule="nonzero"/></clipPath><clipPath id="b3bff827b6"><path d="M 20.867188 0 C 9.558594 0 0.390625 9.167969 0.390625 20.476562 C 0.390625 31.78125 9.558594 40.949219 20.867188 40.949219 C 32.175781 40.949219 41.34375 31.78125 41.34375 20.476562 C 41.34375 9.167969 32.175781 0 20.867188 0 Z M 20.867188 0 " clip-rule="nonzero"/></clipPath><clipPath id="e33363980d"><path d="M 49.488281 22.046875 L 64.125 22.046875 L 64.125 30.105469 L 49.488281 30.105469 Z M 49.488281 22.046875 " clip-rule="nonzero"/></clipPath></defs><g clip-path="url(#14579fc50c)"><path fill="#ffffff" d="M 0.390625 0 L 64.125 0 L 64.125 41.023438 L 0.390625 41.023438 Z M 0.390625 0 " fill-opacity="1" fill-rule="nonzero"/><path fill="#ffffff" d="M 0.390625 0 L 64.125 0 L 64.125 41.023438 L 0.390625 41.023438 Z M 0.390625 0 " fill-opacity="1" fill-rule="nonzero"/></g><g clip-path="url(#bf821f426f)"><g clip-path="url(#b3bff827b6)"><path fill="#000000" d="M 0.390625 0 L 41.34375 0 L 41.34375 40.949219 L 0.390625 40.949219 Z M 0.390625 0 " fill-opacity="1" fill-rule="nonzero"/></g></g><g fill="#ffffff" fill-opacity="1"><g transform="translate(4.136506, 23.780526)"><g><path d="M 7.171875 0 L 5.625 0 L 5.0625 -1.71875 L 2.1875 -1.71875 L 1.625 0 L 0.109375 0 L 2.6875 -7.46875 L 4.59375 -7.46875 Z M 3.546875 -5.921875 L 2.59375 -2.96875 L 4.640625 -2.96875 L 3.6875 -5.921875 Z M 3.546875 -5.921875 "/></g></g><g transform="translate(11.425032, 23.780526)"><g><path d="M 2.78125 0.109375 C 2.332031 0.109375 1.9375 0 1.59375 -0.21875 C 1.257812 -0.4375 0.992188 -0.765625 0.796875 -1.203125 C 0.597656 -1.640625 0.5 -2.175781 0.5 -2.8125 C 0.5 -3.457031 0.597656 -4 0.796875 -4.4375 C 1.003906 -4.875 1.28125 -5.203125 1.625 -5.421875 C 1.976562 -5.640625 2.390625 -5.75 2.859375 -5.75 C 3.210938 -5.75 3.515625 -5.6875 3.765625 -5.5625 C 4.023438 -5.4375 4.242188 -5.25 4.421875 -5 L 4.53125 -5.03125 L 4.53125 -7.90625 L 5.9375 -7.90625 L 5.9375 0 L 4.53125 0 L 4.53125 -0.734375 L 4.421875 -0.75 C 4.265625 -0.488281 4.050781 -0.28125 3.78125 -0.125 C 3.507812 0.03125 3.175781 0.109375 2.78125 0.109375 Z M 3.25 -1.09375 C 3.644531 -1.09375 3.957031 -1.234375 4.1875 -1.515625 C 4.425781 -1.804688 4.546875 -2.238281 4.546875 -2.8125 C 4.546875 -3.394531 4.425781 -3.828125 4.1875 -4.109375 C 3.957031 -4.398438 3.644531 -4.546875 3.25 -4.546875 C 2.832031 -4.546875 2.515625 -4.40625 2.296875 -4.125 C 2.078125 -3.851562 1.96875 -3.414062 1.96875 -2.8125 C 1.96875 -2.21875 2.078125 -1.78125 2.296875 -1.5 C 2.515625 -1.226562 2.832031 -1.09375 3.25 -1.09375 Z M 3.25 -1.09375 "/></g></g><g transform="translate(18.186738, 23.780526)"><g><path d="M 0.8125 0 L 0.8125 -5.640625 L 2.171875 -5.640625 L 2.171875 -4.875 L 2.28125 -4.859375 C 2.46875 -5.160156 2.679688 -5.382812 2.921875 -5.53125 C 3.171875 -5.675781 3.488281 -5.75 3.875 -5.75 C 4.300781 -5.75 4.644531 -5.660156 4.90625 -5.484375 C 5.164062 -5.316406 5.351562 -5.070312 5.46875 -4.75 L 5.578125 -4.75 C 5.753906 -5.09375 5.976562 -5.34375 6.25 -5.5 C 6.519531 -5.664062 6.863281 -5.75 7.28125 -5.75 C 8.445312 -5.75 9.03125 -5.097656 9.03125 -3.796875 L 9.03125 0 L 7.609375 0 L 7.609375 -3.609375 C 7.609375 -3.941406 7.539062 -4.179688 7.40625 -4.328125 C 7.28125 -4.472656 7.078125 -4.546875 6.796875 -4.546875 C 6.015625 -4.546875 5.625 -4.023438 5.625 -2.984375 L 5.625 0 L 4.21875 0 L 4.21875 -3.609375 C 4.21875 -3.941406 4.148438 -4.179688 4.015625 -4.328125 C 3.878906 -4.472656 3.671875 -4.546875 3.390625 -4.546875 C 3.023438 -4.546875 2.738281 -4.421875 2.53125 -4.171875 C 2.332031 -3.929688 2.234375 -3.546875 2.234375 -3.015625 L 2.234375 0 Z M 0.8125 0 "/></g></g><g transform="translate(27.945691, 23.780526)"><g><path d="M 1.515625 -6.3125 C 1.265625 -6.3125 1.054688 -6.390625 0.890625 -6.546875 C 0.734375 -6.703125 0.65625 -6.898438 0.65625 -7.140625 C 0.65625 -7.390625 0.734375 -7.585938 0.890625 -7.734375 C 1.054688 -7.890625 1.265625 -7.96875 1.515625 -7.96875 C 1.691406 -7.96875 1.84375 -7.929688 1.96875 -7.859375 C 2.101562 -7.796875 2.207031 -7.703125 2.28125 -7.578125 C 2.351562 -7.453125 2.390625 -7.304688 2.390625 -7.140625 C 2.390625 -6.984375 2.351562 -6.84375 2.28125 -6.71875 C 2.207031 -6.59375 2.101562 -6.492188 1.96875 -6.421875 C 1.84375 -6.347656 1.691406 -6.3125 1.515625 -6.3125 Z M 0.8125 0 L 0.8125 -5.640625 L 2.234375 -5.640625 L 2.234375 0 Z M 0.8125 0 "/></g></g><g transform="translate(30.983856, 23.780526)"><g><path d="M 0.8125 0 L 0.8125 -5.640625 L 2.171875 -5.640625 L 2.171875 -4.8125 L 2.28125 -4.78125 C 2.632812 -5.425781 3.203125 -5.75 3.984375 -5.75 C 4.640625 -5.75 5.117188 -5.570312 5.421875 -5.21875 C 5.722656 -4.863281 5.875 -4.347656 5.875 -3.671875 L 5.875 0 L 4.46875 0 L 4.46875 -3.484375 C 4.46875 -3.859375 4.390625 -4.128906 4.234375 -4.296875 C 4.085938 -4.460938 3.847656 -4.546875 3.515625 -4.546875 C 3.109375 -4.546875 2.789062 -4.414062 2.5625 -4.15625 C 2.34375 -3.894531 2.234375 -3.484375 2.234375 -2.921875 L 2.234375 0 Z M 0.8125 0 "/></g></g></g><g clip-path="url(#e33363980d)"><path fill="#000000" d="M 57.386719 29.785156 L 63.824219 23.464844 C 64.136719 23.15625 64.136719 22.65625 63.824219 22.347656 C 63.507812 22.046875 63.007812 22.046875 62.695312 22.347656 L 56.816406 28.117188 L 50.9375 22.347656 C 50.625 22.046875 50.113281 22.046875 49.800781 22.347656 C 49.488281 22.65625 49.488281 23.15625 49.800781 23.464844 L 56.246094 29.792969 C 56.5625 30.101562 57.070312 30.101562 57.386719 29.785156 Z M 57.386719 29.785156 " fill-opacity="1" fill-rule="evenodd"/></g></svg>