<svg xmlns="http://www.w3.org/2000/svg" xmlns:xlink="http://www.w3.org/1999/xlink" width="266" zoomAndPan="magnify" viewBox="0 0 199.5 48.75" height="65" preserveAspectRatio="xMidYMid meet" version="1.0"><defs><g/><clipPath id="599ecd8e63"><path d="M 0.261719 0 L 198.742188 0 L 198.742188 48.5 L 0.261719 48.5 Z M 0.261719 0 " clip-rule="nonzero"/></clipPath><clipPath id="695f1d394b"><path d="M 17 2.425781 L 32 2.425781 L 32 14 L 17 14 Z M 17 2.425781 " clip-rule="nonzero"/></clipPath><clipPath id="5e824ce894"><path d="M 7.75 40 L 12 40 L 12 46 L 7.75 46 Z M 7.75 40 " clip-rule="nonzero"/></clipPath></defs><g clip-path="url(#599ecd8e63)"><path fill="#ffffff" d="M 0.261719 0 L 198.742188 0 L 198.742188 48.5 L 0.261719 48.5 Z M 0.261719 0 " fill-opacity="1" fill-rule="nonzero"/><path fill="#ffffff" d="M 0.261719 0 L 198.742188 0 L 198.742188 48.5 L 0.261719 48.5 Z M 0.261719 0 " fill-opacity="1" fill-rule="nonzero"/></g><g clip-path="url(#695f1d394b)"><path fill="#000000" d="M 18.71875 13.320312 C 19.316406 13.320312 19.800781 12.832031 19.800781 12.234375 L 19.800781 10.15625 C 19.800781 7.652344 21.59375 5.417969 24.078125 5.097656 C 27.085938 4.714844 29.648438 7.054688 29.648438 9.984375 L 29.648438 12.234375 C 29.648438 12.832031 30.132812 13.320312 30.730469 13.320312 C 31.328125 13.320312 31.816406 12.832031 31.816406 12.234375 L 31.816406 10.234375 C 31.816406 6.457031 28.972656 3.164062 25.207031 2.90625 C 21.074219 2.628906 17.625 5.910156 17.625 9.984375 L 17.625 12.234375 C 17.632812 12.832031 18.121094 13.320312 18.71875 13.320312 Z M 18.71875 13.320312 " fill-opacity="1" fill-rule="nonzero"/></g><path fill="#ff0808" d="M 19.160156 38.949219 C 19.480469 39.117188 19.609375 39.503906 19.453125 39.824219 L 16.65625 45.40625 C 16.523438 45.65625 16.714844 45.949219 16.992188 45.949219 L 19.488281 45.949219 C 19.757812 45.949219 20.007812 45.792969 20.128906 45.550781 L 23.886719 38.050781 C 23.949219 37.921875 23.898438 37.765625 23.777344 37.703125 L 12.78125 32.195312 C 12.460938 32.03125 12.332031 31.640625 12.488281 31.320312 C 12.652344 31 13.042969 30.867188 13.363281 31.023438 L 25.171875 36.941406 C 25.492188 37.105469 25.621094 37.496094 25.464844 37.816406 L 21.671875 45.394531 C 21.539062 45.648438 21.730469 45.941406 22.007812 45.941406 L 24.511719 45.941406 C 24.78125 45.941406 25.03125 45.785156 25.152344 45.542969 L 29.910156 36.039062 C 29.96875 35.910156 29.917969 35.753906 29.796875 35.695312 L 17.503906 29.535156 C 17.183594 29.371094 17.054688 28.980469 17.210938 28.660156 C 17.375 28.339844 17.765625 28.210938 18.085938 28.367188 L 31.191406 34.933594 C 31.347656 35.007812 31.460938 35.148438 31.519531 35.3125 C 31.574219 35.476562 31.5625 35.660156 31.484375 35.804688 L 26.6875 45.386719 C 26.558594 45.640625 26.746094 45.933594 27.023438 45.933594 L 29.519531 45.933594 C 29.789062 45.933594 30.039062 45.777344 30.160156 45.535156 L 35.921875 34.03125 C 35.980469 33.902344 35.929688 33.746094 35.808594 33.683594 L 22.226562 26.882812 C 21.90625 26.71875 21.773438 26.328125 21.929688 26.007812 C 22.09375 25.6875 22.484375 25.558594 22.804688 25.714844 L 37.203125 32.929688 C 37.523438 33.09375 37.652344 33.484375 37.496094 33.804688 L 31.695312 45.386719 C 31.5625 45.640625 31.753906 45.933594 32.03125 45.933594 L 34.535156 45.933594 C 34.804688 45.933594 35.054688 45.777344 35.175781 45.535156 L 40.304688 35.296875 C 40.632812 34.628906 40.773438 33.882812 40.695312 33.148438 C 40.554688 31.8125 39.75 30.652344 38.554688 30.054688 L 26.945312 24.25 C 26.625 24.085938 26.496094 23.695312 26.652344 23.375 C 26.816406 23.054688 27.207031 22.925781 27.527344 23.082031 L 39.324219 28.988281 C 39.75 29.207031 40.253906 28.859375 40.199219 28.382812 L 39.152344 18.1875 C 38.960938 16.339844 37.402344 14.929688 35.546875 14.929688 L 13.902344 14.929688 C 12.046875 14.929688 10.488281 16.332031 10.296875 18.1875 L 8.789062 32.84375 C 8.738281 33.363281 9.007812 33.859375 9.472656 34.089844 Z M 19.160156 38.949219 " fill-opacity="1" fill-rule="nonzero"/><g clip-path="url(#5e824ce894)"><path fill="#ff0808" d="M 8.71875 40.191406 C 8.410156 40.035156 8.035156 40.242188 8 40.589844 L 7.914062 41.453125 C 7.757812 42.953125 8.433594 44.320312 9.542969 45.144531 C 9.835938 45.371094 10.269531 45.25 10.433594 44.917969 L 11.863281 42.070312 C 11.933594 41.929688 11.882812 41.765625 11.742188 41.695312 Z M 8.71875 40.191406 " fill-opacity="1" fill-rule="nonzero"/></g><path fill="#ff0808" d="M 17.765625 39.703125 L 9.144531 35.390625 C 8.859375 35.253906 8.53125 35.433594 8.496094 35.746094 L 8.269531 37.9375 C 8.234375 38.265625 8.410156 38.570312 8.703125 38.71875 L 13.15625 40.945312 C 13.476562 41.109375 13.605469 41.496094 13.449219 41.820312 L 11.648438 45.414062 C 11.527344 45.65625 11.699219 45.949219 11.96875 45.949219 C 11.96875 45.949219 11.96875 45.949219 11.976562 45.949219 L 14.488281 45.949219 C 14.757812 45.949219 15.007812 45.792969 15.128906 45.550781 L 17.886719 40.050781 C 17.945312 39.929688 17.894531 39.773438 17.765625 39.703125 Z M 17.765625 39.703125 " fill-opacity="1" fill-rule="nonzero"/><path fill="#ff0808" d="M 40.296875 38.242188 L 36.664062 45.492188 C 36.5625 45.699219 36.71875 45.949219 36.953125 45.949219 L 37.488281 45.949219 C 39.90625 45.949219 41.804688 43.855469 41.550781 41.445312 L 41.238281 38.40625 C 41.1875 37.921875 40.519531 37.800781 40.296875 38.242188 Z M 40.296875 38.242188 " fill-opacity="1" fill-rule="nonzero"/><g fill="#000000" fill-opacity="1"><g transform="translate(50.891617, 42.1546)"><g><path d="M 8.46875 -11.359375 L 8.46875 -4.28125 L 20.828125 -4.28125 L 20.828125 0 L 3.359375 0 L 3.359375 -25.859375 L 20.546875 -25.859375 L 20.546875 -21.578125 L 8.46875 -21.578125 L 8.46875 -15.53125 L 19.015625 -15.53125 L 19.015625 -11.359375 Z M 8.46875 -11.359375 "/></g></g></g><g fill="#000000" fill-opacity="1"><g transform="translate(73.121904, 42.1546)"><g><path d="M 3.421875 0 L 3.421875 -15.640625 L 0.65625 -15.640625 L 0.65625 -19.53125 L 3.421875 -19.53125 C 3.210938 -20.351562 3.109375 -21.125 3.109375 -21.84375 C 3.109375 -23.082031 3.390625 -24.140625 3.953125 -25.015625 C 4.523438 -25.898438 5.34375 -26.570312 6.40625 -27.03125 C 7.46875 -27.488281 8.726562 -27.71875 10.1875 -27.71875 C 12.34375 -27.71875 13.953125 -27.347656 15.015625 -26.609375 L 13.875 -23 L 13.5 -22.921875 C 12.769531 -23.441406 11.832031 -23.703125 10.6875 -23.703125 C 9.800781 -23.703125 9.132812 -23.488281 8.6875 -23.0625 C 8.25 -22.632812 8.03125 -22.046875 8.03125 -21.296875 C 8.03125 -20.984375 8.050781 -20.691406 8.09375 -20.421875 C 8.132812 -20.160156 8.207031 -19.863281 8.3125 -19.53125 L 13.890625 -19.53125 L 13.890625 -15.640625 L 8.3125 -15.640625 L 8.3125 0 Z M 3.421875 0 "/></g></g></g><g fill="#000000" fill-opacity="1"><g transform="translate(87.199316, 42.1546)"><g><path d="M 11.34375 0.375 C 9.425781 0.375 7.742188 -0.015625 6.296875 -0.796875 C 4.859375 -1.585938 3.738281 -2.738281 2.9375 -4.25 C 2.144531 -5.769531 1.75 -7.601562 1.75 -9.75 C 1.75 -11.894531 2.144531 -13.726562 2.9375 -15.25 C 3.738281 -16.769531 4.859375 -17.921875 6.296875 -18.703125 C 7.742188 -19.492188 9.425781 -19.890625 11.34375 -19.890625 C 13.25 -19.890625 14.925781 -19.492188 16.375 -18.703125 C 17.820312 -17.921875 18.945312 -16.769531 19.75 -15.25 C 20.550781 -13.726562 20.953125 -11.894531 20.953125 -9.75 C 20.953125 -7.601562 20.550781 -5.769531 19.75 -4.25 C 18.945312 -2.738281 17.820312 -1.585938 16.375 -0.796875 C 14.925781 -0.015625 13.25 0.375 11.34375 0.375 Z M 11.34375 -3.78125 C 14.375 -3.78125 15.890625 -5.769531 15.890625 -9.75 C 15.890625 -11.8125 15.5 -13.320312 14.71875 -14.28125 C 13.9375 -15.25 12.8125 -15.734375 11.34375 -15.734375 C 8.3125 -15.734375 6.796875 -13.738281 6.796875 -9.75 C 6.796875 -5.769531 8.3125 -3.78125 11.34375 -3.78125 Z M 11.34375 -3.78125 "/></g></g></g><g fill="#000000" fill-opacity="1"><g transform="translate(109.871733, 42.1546)"><g><path d="M 8.109375 0.375 C 6.347656 0.375 5.003906 -0.0976562 4.078125 -1.046875 C 3.148438 -2.003906 2.6875 -3.445312 2.6875 -5.375 L 2.6875 -27.359375 L 7.59375 -27.359375 L 7.59375 -5.578125 C 7.59375 -4.378906 8.085938 -3.78125 9.078125 -3.78125 C 9.359375 -3.78125 9.660156 -3.828125 9.984375 -3.921875 L 10.21875 -3.859375 L 10.671875 -0.09375 C 10.398438 0.0507812 10.039062 0.164062 9.59375 0.25 C 9.144531 0.332031 8.648438 0.375 8.109375 0.375 Z M 8.109375 0.375 "/></g></g></g><g fill="#000000" fill-opacity="1"><g transform="translate(121.084144, 42.1546)"><g><path d="M 3.359375 0 L 3.359375 -25.859375 L 8.46875 -25.859375 L 8.46875 -15.296875 L 9.046875 -15.296875 L 17.671875 -25.859375 L 22.90625 -25.859375 L 22.90625 -25.421875 L 13.390625 -13.65625 L 23.90625 -0.4375 L 23.90625 0 L 18.125 0 L 9.046875 -11.15625 L 8.46875 -11.15625 L 8.46875 0 Z M 3.359375 0 "/></g></g></g><g fill="#000000" fill-opacity="1"><g transform="translate(144.976838, 42.1546)"><g><path d="M 5.25 -21.84375 C 4.363281 -21.84375 3.644531 -22.109375 3.09375 -22.640625 C 2.539062 -23.179688 2.265625 -23.878906 2.265625 -24.734375 C 2.265625 -25.566406 2.539062 -26.25 3.09375 -26.78125 C 3.644531 -27.320312 4.363281 -27.59375 5.25 -27.59375 C 5.84375 -27.59375 6.367188 -27.46875 6.828125 -27.21875 C 7.285156 -26.976562 7.640625 -26.640625 7.890625 -26.203125 C 8.148438 -25.773438 8.28125 -25.285156 8.28125 -24.734375 C 8.28125 -24.179688 8.148438 -23.6875 7.890625 -23.25 C 7.640625 -22.8125 7.285156 -22.46875 6.828125 -22.21875 C 6.367188 -21.96875 5.84375 -21.84375 5.25 -21.84375 Z M 2.8125 0 L 2.8125 -19.515625 L 7.71875 -19.515625 L 7.71875 0 Z M 2.8125 0 "/></g></g></g><g fill="#000000" fill-opacity="1"><g transform="translate(155.481842, 42.1546)"><g><path d="M 2.8125 0 L 2.8125 -19.515625 L 7.515625 -19.515625 L 7.515625 -16.890625 L 7.890625 -16.828125 C 8.523438 -17.878906 9.269531 -18.648438 10.125 -19.140625 C 10.976562 -19.640625 12.070312 -19.890625 13.40625 -19.890625 C 14.882812 -19.890625 16.070312 -19.597656 16.96875 -19.015625 C 17.863281 -18.429688 18.519531 -17.578125 18.9375 -16.453125 L 19.296875 -16.453125 C 19.898438 -17.617188 20.675781 -18.484375 21.625 -19.046875 C 22.570312 -19.609375 23.753906 -19.890625 25.171875 -19.890625 C 29.222656 -19.890625 31.25 -17.632812 31.25 -13.125 L 31.25 0 L 26.34375 0 L 26.34375 -12.515625 C 26.34375 -13.648438 26.117188 -14.472656 25.671875 -14.984375 C 25.222656 -15.492188 24.503906 -15.75 23.515625 -15.75 C 20.828125 -15.75 19.484375 -13.945312 19.484375 -10.34375 L 19.484375 0 L 14.578125 0 L 14.578125 -12.515625 C 14.578125 -13.648438 14.347656 -14.472656 13.890625 -14.984375 C 13.441406 -15.492188 12.722656 -15.75 11.734375 -15.75 C 10.472656 -15.75 9.488281 -15.328125 8.78125 -14.484375 C 8.070312 -13.640625 7.71875 -12.296875 7.71875 -10.453125 L 7.71875 0 Z M 2.8125 0 "/></g></g></g><g fill="#ff0808" fill-opacity="1"><g transform="translate(156.137083, 19.373764)"><g><path d="M 6.34375 0 L 5.453125 0 L 4.8125 -1.9375 L 1.796875 -1.9375 L 1.140625 0 L 0.28125 0 L 2.734375 -7.046875 L 3.890625 -7.046875 Z M 3.25 -6.203125 L 2.03125 -2.625 L 4.578125 -2.625 L 3.359375 -6.203125 Z M 3.25 -6.203125 "/></g></g></g><g fill="#ff0808" fill-opacity="1"><g transform="translate(162.761565, 19.373764)"><g><path d="M 2.765625 0.09375 C 2.328125 0.09375 1.945312 -0.00390625 1.625 -0.203125 C 1.300781 -0.410156 1.046875 -0.71875 0.859375 -1.125 C 0.671875 -1.539062 0.578125 -2.050781 0.578125 -2.65625 C 0.578125 -3.257812 0.671875 -3.769531 0.859375 -4.1875 C 1.054688 -4.601562 1.320312 -4.910156 1.65625 -5.109375 C 2 -5.316406 2.394531 -5.421875 2.84375 -5.421875 C 3.195312 -5.421875 3.515625 -5.351562 3.796875 -5.21875 C 4.085938 -5.082031 4.332031 -4.863281 4.53125 -4.5625 L 4.640625 -4.578125 L 4.640625 -7.453125 L 5.421875 -7.453125 L 5.421875 0 L 4.640625 0 L 4.640625 -0.78125 L 4.53125 -0.796875 C 4.351562 -0.535156 4.113281 -0.320312 3.8125 -0.15625 C 3.519531 0.0078125 3.171875 0.09375 2.765625 0.09375 Z M 3 -0.609375 C 3.5 -0.609375 3.894531 -0.773438 4.1875 -1.109375 C 4.488281 -1.453125 4.640625 -1.96875 4.640625 -2.65625 C 4.640625 -3.351562 4.488281 -3.867188 4.1875 -4.203125 C 3.894531 -4.546875 3.5 -4.71875 3 -4.71875 C 2.488281 -4.71875 2.09375 -4.550781 1.8125 -4.21875 C 1.539062 -3.882812 1.40625 -3.363281 1.40625 -2.65625 C 1.40625 -1.289062 1.9375 -0.609375 3 -0.609375 Z M 3 -0.609375 "/></g></g></g><g fill="#ff0808" fill-opacity="1"><g transform="translate(169.111232, 19.373764)"><g><path d="M 0.921875 0 L 0.921875 -5.3125 L 1.671875 -5.3125 L 1.671875 -4.53125 L 1.78125 -4.515625 C 1.957031 -4.816406 2.171875 -5.039062 2.421875 -5.1875 C 2.679688 -5.34375 2.988281 -5.421875 3.34375 -5.421875 C 3.757812 -5.421875 4.078125 -5.34375 4.296875 -5.1875 C 4.523438 -5.03125 4.703125 -4.78125 4.828125 -4.4375 L 4.921875 -4.4375 C 5.109375 -4.757812 5.335938 -5.003906 5.609375 -5.171875 C 5.878906 -5.335938 6.207031 -5.421875 6.59375 -5.421875 C 7.144531 -5.421875 7.550781 -5.269531 7.8125 -4.96875 C 8.082031 -4.675781 8.21875 -4.226562 8.21875 -3.625 L 8.21875 0 L 7.4375 0 L 7.4375 -3.609375 C 7.4375 -3.992188 7.351562 -4.273438 7.1875 -4.453125 C 7.03125 -4.640625 6.769531 -4.734375 6.40625 -4.734375 C 5.976562 -4.734375 5.628906 -4.578125 5.359375 -4.265625 C 5.097656 -3.960938 4.96875 -3.457031 4.96875 -2.75 L 4.96875 0 L 4.1875 0 L 4.1875 -3.609375 C 4.1875 -3.992188 4.101562 -4.273438 3.9375 -4.453125 C 3.769531 -4.640625 3.507812 -4.734375 3.15625 -4.734375 C 2.726562 -4.734375 2.378906 -4.582031 2.109375 -4.28125 C 1.847656 -3.988281 1.71875 -3.503906 1.71875 -2.828125 L 1.71875 0 Z M 0.921875 0 "/></g></g></g><g fill="#ff0808" fill-opacity="1"><g transform="translate(178.175297, 19.373764)"><g><path d="M 1.328125 -6.34375 C 1.160156 -6.34375 1.019531 -6.394531 0.90625 -6.5 C 0.800781 -6.601562 0.75 -6.738281 0.75 -6.90625 C 0.75 -7.0625 0.800781 -7.191406 0.90625 -7.296875 C 1.019531 -7.398438 1.160156 -7.453125 1.328125 -7.453125 C 1.492188 -7.453125 1.628906 -7.398438 1.734375 -7.296875 C 1.835938 -7.191406 1.890625 -7.0625 1.890625 -6.90625 C 1.890625 -6.738281 1.835938 -6.601562 1.734375 -6.5 C 1.628906 -6.394531 1.492188 -6.34375 1.328125 -6.34375 Z M 0.921875 0 L 0.921875 -5.3125 L 1.71875 -5.3125 L 1.71875 0 Z M 0.921875 0 "/></g></g></g><g fill="#ff0808" fill-opacity="1"><g transform="translate(180.812555, 19.373764)"><g><path d="M 0.921875 0 L 0.921875 -5.3125 L 1.671875 -5.3125 L 1.671875 -4.484375 L 1.78125 -4.453125 C 1.957031 -4.765625 2.179688 -5.003906 2.453125 -5.171875 C 2.722656 -5.335938 3.054688 -5.421875 3.453125 -5.421875 C 4.097656 -5.421875 4.5625 -5.253906 4.84375 -4.921875 C 5.132812 -4.597656 5.28125 -4.097656 5.28125 -3.421875 L 5.28125 0 L 4.5 0 L 4.5 -3.40625 C 4.5 -3.726562 4.457031 -3.984375 4.375 -4.171875 C 4.289062 -4.367188 4.160156 -4.507812 3.984375 -4.59375 C 3.816406 -4.6875 3.59375 -4.734375 3.3125 -4.734375 C 2.832031 -4.734375 2.445312 -4.570312 2.15625 -4.25 C 1.863281 -3.9375 1.71875 -3.429688 1.71875 -2.734375 L 1.71875 0 Z M 0.921875 0 "/></g></g></g></svg>