<svg xmlns="http://www.w3.org/2000/svg" xmlns:xlink="http://www.w3.org/1999/xlink" width="40" zoomAndPan="magnify" viewBox="0 0 30 30.000001" height="40" preserveAspectRatio="xMidYMid meet" version="1.0"><defs><clipPath id="ac551e1403"><path d="M 0.484375 0 L 29.515625 0 L 29.515625 29.03125 L 0.484375 29.03125 Z M 0.484375 0 " clip-rule="nonzero"/></clipPath><clipPath id="2186b8342b"><path d="M 1 4.25 L 29.515625 4.25 L 29.515625 24 L 1 24 Z M 1 4.25 " clip-rule="nonzero"/></clipPath><clipPath id="2a5ad79e86"><path d="M 1 4.25 L 7 4.25 L 7 24 L 1 24 Z M 1 4.25 " clip-rule="nonzero"/></clipPath><clipPath id="d8db7ad0ab"><path d="M 0.484375 4.25 L 8 4.25 L 8 24.570312 L 0.484375 24.570312 Z M 0.484375 4.25 " clip-rule="nonzero"/></clipPath></defs><g clip-path="url(#ac551e1403)"><path fill="#ffffff" d="M 0.484375 0 L 29.515625 0 L 29.515625 29.03125 L 0.484375 29.03125 Z M 0.484375 0 " fill-opacity="1" fill-rule="nonzero"/><path fill="#ffffff" d="M 0.484375 0 L 29.515625 0 L 29.515625 29.03125 L 0.484375 29.03125 Z M 0.484375 0 " fill-opacity="1" fill-rule="nonzero"/></g><g clip-path="url(#2186b8342b)"><path fill="#10b798" d="M 3.792969 18.359375 L 26.726562 18.359375 C 27.097656 18.359375 27.449219 18.429688 27.789062 18.570312 C 28.128906 18.710938 28.429688 18.910156 28.691406 19.167969 C 28.953125 19.425781 29.152344 19.722656 29.292969 20.058594 C 29.433594 20.394531 29.507812 20.746094 29.507812 21.109375 C 29.507812 21.472656 29.433594 21.824219 29.292969 22.160156 C 29.152344 22.5 28.953125 22.796875 28.691406 23.054688 C 28.429688 23.3125 28.128906 23.511719 27.789062 23.648438 C 27.449219 23.789062 27.097656 23.859375 26.726562 23.863281 L 3.792969 23.863281 C 3.425781 23.859375 3.074219 23.789062 2.730469 23.648438 C 2.390625 23.511719 2.09375 23.3125 1.832031 23.054688 C 1.570312 22.796875 1.371094 22.5 1.230469 22.160156 C 1.085938 21.824219 1.015625 21.472656 1.015625 21.109375 C 1.015625 20.746094 1.085938 20.394531 1.230469 20.058594 C 1.371094 19.722656 1.570312 19.425781 1.832031 19.167969 C 2.09375 18.910156 2.390625 18.710938 2.730469 18.570312 C 3.074219 18.429688 3.425781 18.359375 3.792969 18.359375 Z M 3.792969 4.625 L 26.726562 4.625 C 27.097656 4.625 27.449219 4.695312 27.789062 4.835938 C 28.128906 4.976562 28.429688 5.175781 28.691406 5.433594 C 28.953125 5.691406 29.152344 5.988281 29.292969 6.324219 C 29.433594 6.660156 29.507812 7.011719 29.507812 7.378906 C 29.507812 7.742188 29.433594 8.09375 29.292969 8.429688 C 29.152344 8.765625 28.953125 9.0625 28.691406 9.320312 C 28.429688 9.578125 28.128906 9.777344 27.789062 9.917969 C 27.449219 10.058594 27.097656 10.128906 26.726562 10.128906 L 3.792969 10.128906 C 3.425781 10.128906 3.074219 10.058594 2.730469 9.917969 C 2.390625 9.777344 2.09375 9.578125 1.832031 9.320312 C 1.570312 9.0625 1.371094 8.765625 1.230469 8.429688 C 1.085938 8.09375 1.015625 7.742188 1.015625 7.378906 C 1.015625 7.011719 1.085938 6.660156 1.230469 6.324219 C 1.371094 5.988281 1.570312 5.691406 1.832031 5.433594 C 2.09375 5.175781 2.390625 4.976562 2.730469 4.835938 C 3.074219 4.695312 3.425781 4.625 3.792969 4.625 Z M 3.792969 11.492188 L 26.726562 11.492188 C 27.097656 11.492188 27.449219 11.5625 27.789062 11.703125 C 28.128906 11.84375 28.429688 12.042969 28.691406 12.300781 C 28.953125 12.558594 29.152344 12.855469 29.292969 13.191406 C 29.433594 13.527344 29.507812 13.878906 29.507812 14.242188 C 29.507812 14.609375 29.433594 14.960938 29.292969 15.296875 C 29.152344 15.632812 28.953125 15.929688 28.691406 16.1875 C 28.429688 16.445312 28.128906 16.644531 27.789062 16.785156 C 27.449219 16.925781 27.097656 16.996094 26.726562 16.996094 L 3.792969 16.996094 C 3.425781 16.996094 3.074219 16.925781 2.730469 16.785156 C 2.390625 16.644531 2.09375 16.445312 1.832031 16.1875 C 1.570312 15.929688 1.371094 15.632812 1.230469 15.296875 C 1.085938 14.957031 1.015625 14.609375 1.015625 14.242188 C 1.015625 13.878906 1.085938 13.527344 1.230469 13.191406 C 1.371094 12.855469 1.570312 12.558594 1.832031 12.300781 C 2.09375 12.042969 2.390625 11.84375 2.730469 11.703125 C 3.074219 11.5625 3.425781 11.492188 3.792969 11.492188 Z M 3.792969 11.492188 " fill-opacity="1" fill-rule="evenodd"/></g><g clip-path="url(#2a5ad79e86)"><path fill="#ffffff" d="M 3.960938 18.671875 C 4.285156 18.671875 4.601562 18.734375 4.902344 18.855469 C 5.203125 18.980469 5.46875 19.15625 5.699219 19.386719 C 5.929688 19.613281 6.105469 19.875 6.230469 20.175781 C 6.355469 20.472656 6.417969 20.78125 6.417969 21.105469 C 6.417969 21.429688 6.355469 21.738281 6.230469 22.035156 C 6.105469 22.335938 5.929688 22.597656 5.699219 22.828125 C 5.46875 23.054688 5.203125 23.230469 4.902344 23.355469 C 4.601562 23.476562 4.285156 23.539062 3.960938 23.539062 C 3.632812 23.539062 3.320312 23.476562 3.019531 23.355469 C 2.71875 23.230469 2.453125 23.054688 2.222656 22.828125 C 1.992188 22.597656 1.8125 22.335938 1.691406 22.035156 C 1.566406 21.738281 1.503906 21.429688 1.503906 21.105469 C 1.503906 20.78125 1.566406 20.472656 1.691406 20.175781 C 1.8125 19.875 1.992188 19.613281 2.222656 19.386719 C 2.453125 19.15625 2.71875 18.980469 3.019531 18.855469 C 3.320312 18.734375 3.632812 18.671875 3.960938 18.671875 Z M 3.960938 4.941406 C 4.285156 4.941406 4.601562 5 4.902344 5.125 C 5.203125 5.25 5.46875 5.425781 5.699219 5.652344 C 5.929688 5.878906 6.105469 6.144531 6.230469 6.441406 C 6.355469 6.738281 6.417969 7.050781 6.417969 7.371094 C 6.417969 7.695312 6.355469 8.007812 6.230469 8.304688 C 6.105469 8.601562 5.929688 8.867188 5.699219 9.09375 C 5.46875 9.320312 5.203125 9.496094 4.902344 9.621094 C 4.601562 9.746094 4.285156 9.804688 3.960938 9.804688 C 3.632812 9.804688 3.320312 9.746094 3.019531 9.621094 C 2.71875 9.496094 2.453125 9.320312 2.222656 9.09375 C 1.992188 8.867188 1.8125 8.601562 1.691406 8.304688 C 1.566406 8.007812 1.503906 7.695312 1.503906 7.371094 C 1.503906 7.050781 1.566406 6.738281 1.691406 6.441406 C 1.8125 6.144531 1.992188 5.878906 2.222656 5.652344 C 2.453125 5.425781 2.71875 5.25 3.019531 5.125 C 3.320312 5 3.632812 4.941406 3.960938 4.941406 Z M 3.960938 11.804688 C 4.285156 11.804688 4.601562 11.867188 4.902344 11.992188 C 5.203125 12.113281 5.46875 12.289062 5.699219 12.519531 C 5.929688 12.746094 6.105469 13.011719 6.230469 13.308594 C 6.355469 13.605469 6.417969 13.917969 6.417969 14.238281 C 6.417969 14.5625 6.355469 14.871094 6.230469 15.171875 C 6.105469 15.46875 5.929688 15.730469 5.699219 15.960938 C 5.46875 16.1875 5.203125 16.363281 4.902344 16.488281 C 4.601562 16.613281 4.285156 16.671875 3.960938 16.671875 C 3.632812 16.671875 3.320312 16.613281 3.019531 16.488281 C 2.71875 16.363281 2.453125 16.1875 2.222656 15.960938 C 1.992188 15.730469 1.8125 15.46875 1.691406 15.171875 C 1.566406 14.871094 1.503906 14.5625 1.503906 14.238281 C 1.503906 13.917969 1.566406 13.605469 1.691406 13.308594 C 1.816406 13.011719 1.992188 12.746094 2.222656 12.519531 C 2.453125 12.292969 2.71875 12.117188 3.019531 11.992188 C 3.320312 11.867188 3.632812 11.808594 3.960938 11.808594 Z M 3.960938 11.804688 " fill-opacity="1" fill-rule="evenodd"/></g><g clip-path="url(#d8db7ad0ab)"><path fill="#939598" d="M 3.960938 17.980469 C 4.203125 17.980469 4.441406 18.007812 4.675781 18.0625 C 4.914062 18.117188 5.140625 18.199219 5.359375 18.304688 C 5.574219 18.410156 5.777344 18.539062 5.964844 18.691406 C 6.152344 18.84375 6.320312 19.015625 6.464844 19.207031 C 6.613281 19.394531 6.738281 19.601562 6.839844 19.820312 C 6.9375 20.039062 7.011719 20.265625 7.058594 20.5 C 7.105469 20.734375 7.125 20.972656 7.117188 21.210938 C 7.109375 21.453125 7.074219 21.6875 7.011719 21.917969 C 6.949219 22.152344 6.859375 22.371094 6.746094 22.585938 C 6.632812 22.796875 6.496094 22.992188 6.335938 23.171875 C 6.175781 23.351562 5.996094 23.511719 5.800781 23.652344 C 5.601562 23.792969 5.394531 23.90625 5.167969 24 C 4.945312 24.089844 4.714844 24.15625 4.472656 24.195312 C 4.234375 24.234375 3.996094 24.246094 3.753906 24.230469 C 3.511719 24.214844 3.273438 24.171875 3.042969 24.101562 C 2.8125 24.035156 2.589844 23.9375 2.378906 23.820312 C 2.171875 23.699219 1.976562 23.554688 1.800781 23.390625 C 1.625 23.226562 1.46875 23.046875 1.332031 22.847656 C 1.199219 22.648438 1.089844 22.4375 1.003906 22.210938 C 0.917969 21.988281 0.859375 21.753906 0.828125 21.519531 C 0.796875 21.28125 0.792969 21.042969 0.816406 20.804688 C 0.839844 20.5625 0.890625 20.332031 0.96875 20.105469 C 1.046875 19.875 1.148438 19.660156 1.277344 19.457031 C 1.40625 19.253906 1.554688 19.066406 1.726562 18.898438 C 2.34375 18.285156 3.085938 17.980469 3.960938 17.980469 Z M 3.960938 4.25 C 4.203125 4.25 4.441406 4.277344 4.675781 4.332031 C 4.914062 4.386719 5.140625 4.464844 5.359375 4.570312 C 5.574219 4.679688 5.777344 4.808594 5.964844 4.960938 C 6.152344 5.113281 6.320312 5.28125 6.464844 5.472656 C 6.613281 5.664062 6.738281 5.867188 6.835938 6.085938 C 6.9375 6.304688 7.011719 6.53125 7.058594 6.765625 C 7.105469 7.003906 7.125 7.242188 7.117188 7.480469 C 7.109375 7.71875 7.074219 7.957031 7.011719 8.1875 C 6.949219 8.417969 6.859375 8.640625 6.746094 8.851562 C 6.632812 9.0625 6.496094 9.257812 6.335938 9.441406 C 6.175781 9.621094 5.996094 9.78125 5.800781 9.921875 C 5.601562 10.058594 5.390625 10.175781 5.167969 10.265625 C 4.945312 10.359375 4.710938 10.425781 4.472656 10.464844 C 4.234375 10.503906 3.996094 10.515625 3.753906 10.5 C 3.511719 10.484375 3.273438 10.441406 3.042969 10.371094 C 2.808594 10.300781 2.589844 10.207031 2.378906 10.085938 C 2.167969 9.964844 1.976562 9.824219 1.800781 9.660156 C 1.621094 9.496094 1.46875 9.3125 1.332031 9.113281 C 1.199219 8.914062 1.089844 8.703125 1.003906 8.480469 C 0.917969 8.253906 0.859375 8.023438 0.828125 7.785156 C 0.796875 7.546875 0.792969 7.308594 0.816406 7.070312 C 0.839844 6.832031 0.890625 6.597656 0.96875 6.371094 C 1.046875 6.144531 1.148438 5.929688 1.277344 5.726562 C 1.40625 5.519531 1.554688 5.335938 1.726562 5.164062 C 2.34375 4.554688 3.085938 4.246094 3.960938 4.25 Z M 5.863281 5.492188 C 5.71875 5.347656 5.558594 5.21875 5.382812 5.113281 C 5.207031 5.003906 5.019531 4.917969 4.824219 4.851562 C 4.628906 4.785156 4.429688 4.742188 4.222656 4.722656 C 4.019531 4.703125 3.8125 4.707031 3.609375 4.734375 C 3.402344 4.761719 3.203125 4.808594 3.011719 4.882812 C 2.816406 4.953125 2.636719 5.046875 2.464844 5.160156 C 2.292969 5.273438 2.136719 5.40625 1.992188 5.554688 C 1.851562 5.703125 1.730469 5.867188 1.628906 6.042969 C 1.523438 6.222656 1.441406 6.40625 1.382812 6.601562 C 1.320312 6.800781 1.285156 7 1.273438 7.203125 C 1.257812 7.40625 1.269531 7.609375 1.300781 7.8125 C 1.335938 8.011719 1.390625 8.207031 1.472656 8.398438 C 1.550781 8.585938 1.648438 8.765625 1.769531 8.929688 C 1.890625 9.097656 2.027344 9.246094 2.183594 9.382812 C 2.339844 9.515625 2.507812 9.632812 2.691406 9.730469 C 2.871094 9.824219 3.0625 9.898438 3.261719 9.953125 C 3.460938 10.007812 3.664062 10.035156 3.871094 10.042969 C 4.078125 10.050781 4.28125 10.03125 4.484375 9.992188 C 4.6875 9.953125 4.882812 9.890625 5.070312 9.804688 C 5.257812 9.722656 5.433594 9.617188 5.597656 9.492188 C 5.761719 9.367188 5.910156 9.226562 6.042969 9.070312 C 6.171875 8.910156 6.285156 8.738281 6.375 8.558594 C 6.46875 8.375 6.535156 8.183594 6.582031 7.984375 C 6.628906 7.785156 6.652344 7.582031 6.652344 7.378906 C 6.652344 6.640625 6.390625 6.011719 5.863281 5.492188 Z M 3.960938 11.117188 C 4.203125 11.117188 4.441406 11.144531 4.675781 11.199219 C 4.914062 11.253906 5.140625 11.332031 5.359375 11.4375 C 5.574219 11.542969 5.777344 11.671875 5.964844 11.824219 C 6.152344 11.976562 6.320312 12.148438 6.464844 12.339844 C 6.613281 12.53125 6.738281 12.734375 6.839844 12.953125 C 6.9375 13.171875 7.011719 13.398438 7.058594 13.632812 C 7.105469 13.867188 7.125 14.105469 7.117188 14.347656 C 7.109375 14.585938 7.074219 14.820312 7.011719 15.054688 C 6.949219 15.285156 6.859375 15.507812 6.746094 15.71875 C 6.632812 15.929688 6.496094 16.125 6.335938 16.304688 C 6.175781 16.488281 5.996094 16.648438 5.800781 16.785156 C 5.601562 16.925781 5.394531 17.042969 5.167969 17.132812 C 4.945312 17.226562 4.714844 17.289062 4.472656 17.328125 C 4.234375 17.367188 3.996094 17.378906 3.753906 17.363281 C 3.511719 17.347656 3.273438 17.304688 3.042969 17.238281 C 2.8125 17.167969 2.589844 17.074219 2.378906 16.953125 C 2.171875 16.832031 1.976562 16.691406 1.800781 16.527344 C 1.625 16.363281 1.46875 16.179688 1.332031 15.980469 C 1.199219 15.78125 1.089844 15.570312 1.003906 15.34375 C 0.917969 15.121094 0.859375 14.890625 0.828125 14.652344 C 0.796875 14.414062 0.792969 14.175781 0.816406 13.9375 C 0.839844 13.699219 0.890625 13.464844 0.96875 13.238281 C 1.046875 13.011719 1.148438 12.796875 1.277344 12.589844 C 1.40625 12.386719 1.554688 12.203125 1.726562 12.03125 C 2.34375 11.421875 3.085938 11.113281 3.960938 11.117188 Z M 5.863281 12.359375 C 5.71875 12.214844 5.558594 12.085938 5.382812 11.980469 C 5.207031 11.871094 5.023438 11.785156 4.824219 11.71875 C 4.628906 11.652344 4.429688 11.609375 4.222656 11.589844 C 4.019531 11.570312 3.8125 11.574219 3.609375 11.601562 C 3.402344 11.625 3.203125 11.675781 3.011719 11.746094 C 2.816406 11.820312 2.636719 11.914062 2.464844 12.027344 C 2.292969 12.140625 2.136719 12.273438 1.996094 12.421875 C 1.851562 12.570312 1.730469 12.734375 1.628906 12.910156 C 1.523438 13.085938 1.441406 13.273438 1.382812 13.46875 C 1.324219 13.664062 1.285156 13.867188 1.273438 14.070312 C 1.257812 14.273438 1.269531 14.476562 1.304688 14.679688 C 1.335938 14.878906 1.394531 15.074219 1.472656 15.265625 C 1.550781 15.453125 1.652344 15.632812 1.769531 15.796875 C 1.890625 15.964844 2.027344 16.113281 2.183594 16.25 C 2.339844 16.382812 2.507812 16.5 2.691406 16.59375 C 2.871094 16.691406 3.0625 16.765625 3.261719 16.820312 C 3.460938 16.871094 3.664062 16.902344 3.871094 16.910156 C 4.078125 16.914062 4.28125 16.898438 4.484375 16.859375 C 4.6875 16.820312 4.882812 16.757812 5.070312 16.671875 C 5.261719 16.589844 5.4375 16.484375 5.601562 16.359375 C 5.765625 16.234375 5.910156 16.09375 6.042969 15.9375 C 6.171875 15.777344 6.285156 15.605469 6.375 15.421875 C 6.46875 15.238281 6.535156 15.046875 6.582031 14.847656 C 6.628906 14.648438 6.652344 14.449219 6.652344 14.242188 C 6.65625 13.507812 6.390625 12.878906 5.863281 12.359375 Z M 5.863281 19.226562 C 5.71875 19.082031 5.558594 18.953125 5.382812 18.847656 C 5.207031 18.738281 5.023438 18.652344 4.824219 18.585938 C 4.628906 18.519531 4.429688 18.476562 4.222656 18.457031 C 4.019531 18.4375 3.8125 18.441406 3.609375 18.464844 C 3.402344 18.492188 3.203125 18.542969 3.011719 18.613281 C 2.816406 18.6875 2.636719 18.78125 2.464844 18.894531 C 2.292969 19.007812 2.136719 19.136719 1.996094 19.289062 C 1.851562 19.4375 1.730469 19.601562 1.628906 19.777344 C 1.523438 19.953125 1.441406 20.140625 1.382812 20.335938 C 1.324219 20.53125 1.285156 20.730469 1.273438 20.9375 C 1.257812 21.140625 1.269531 21.34375 1.304688 21.542969 C 1.335938 21.746094 1.394531 21.941406 1.472656 22.132812 C 1.550781 22.320312 1.652344 22.496094 1.769531 22.664062 C 1.890625 22.828125 2.027344 22.980469 2.183594 23.117188 C 2.339844 23.25 2.507812 23.367188 2.691406 23.460938 C 2.871094 23.558594 3.0625 23.632812 3.261719 23.6875 C 3.460938 23.738281 3.664062 23.769531 3.871094 23.777344 C 4.078125 23.78125 4.28125 23.765625 4.484375 23.726562 C 4.6875 23.6875 4.882812 23.625 5.070312 23.539062 C 5.261719 23.453125 5.4375 23.351562 5.601562 23.226562 C 5.765625 23.101562 5.910156 22.960938 6.042969 22.800781 C 6.171875 22.644531 6.285156 22.472656 6.375 22.289062 C 6.46875 22.105469 6.535156 21.914062 6.582031 21.714844 C 6.628906 21.515625 6.652344 21.316406 6.652344 21.109375 C 6.65625 20.375 6.390625 19.746094 5.863281 19.222656 Z M 5.863281 19.226562 " fill-opacity="1" fill-rule="evenodd"/></g></svg>