<svg xmlns="http://www.w3.org/2000/svg" xmlns:xlink="http://www.w3.org/1999/xlink" width="40" zoomAndPan="magnify" viewBox="0 0 30 30.000001" height="40" preserveAspectRatio="xMidYMid meet" version="1.0"><defs><clipPath id="162d2ab96a"><path d="M 0.484375 0 L 29.515625 0 L 29.515625 29.03125 L 0.484375 29.03125 Z M 0.484375 0 " clip-rule="nonzero"/></clipPath><clipPath id="b532476441"><path d="M 2 1.453125 L 28 1.453125 L 28 27.582031 L 2 27.582031 Z M 2 1.453125 " clip-rule="nonzero"/></clipPath></defs><g clip-path="url(#162d2ab96a)"><path fill="#ffffff" d="M 0.484375 0 L 29.515625 0 L 29.515625 29.03125 L 0.484375 29.03125 Z M 0.484375 0 " fill-opacity="1" fill-rule="nonzero"/><path fill="#ffffff" d="M 0.484375 0 L 29.515625 0 L 29.515625 29.03125 L 0.484375 29.03125 Z M 0.484375 0 " fill-opacity="1" fill-rule="nonzero"/></g><g clip-path="url(#b532476441)"><path fill="#f36c21" d="M 5.59375 1.644531 L 3.355469 1.664062 C 3.183594 1.660156 3.015625 1.695312 2.855469 1.757812 C 2.699219 1.824219 2.558594 1.917969 2.4375 2.039062 C 2.3125 2.160156 2.222656 2.300781 2.15625 2.460938 C 2.089844 2.621094 2.058594 2.785156 2.058594 2.957031 C 2.0625 3.128906 2.09375 3.296875 2.164062 3.453125 C 2.230469 3.613281 2.324219 3.75 2.449219 3.871094 C 2.570312 3.992188 2.714844 4.082031 2.875 4.148438 C 3.035156 4.210938 3.199219 4.238281 3.371094 4.238281 L 4.75 4.226562 L 8.988281 14.398438 L 7.445312 16.863281 C 6.367188 18.585938 7.679688 20.953125 9.710938 20.953125 L 23.945312 20.953125 C 24.117188 20.953125 24.285156 20.921875 24.445312 20.859375 C 24.605469 20.792969 24.746094 20.703125 24.867188 20.582031 C 24.992188 20.460938 25.085938 20.320312 25.152344 20.160156 C 25.21875 20.003906 25.25 19.835938 25.25 19.664062 C 25.25 19.492188 25.21875 19.328125 25.152344 19.167969 C 25.085938 19.007812 24.992188 18.867188 24.867188 18.75 C 24.746094 18.628906 24.605469 18.535156 24.445312 18.46875 C 24.285156 18.40625 24.117188 18.375 23.945312 18.378906 L 9.710938 18.378906 C 9.570312 18.378906 9.550781 18.347656 9.628906 18.226562 C 9.628906 18.226562 9.628906 18.226562 9.632812 18.226562 L 11.144531 15.804688 L 20.753906 15.804688 C 21.691406 15.804688 22.550781 15.296875 23.003906 14.476562 L 27.640625 6.128906 C 28.117188 5.273438 27.5 4.21875 26.515625 4.21875 L 7.535156 4.21875 L 6.792969 2.4375 C 6.691406 2.195312 6.53125 2.003906 6.3125 1.859375 C 6.09375 1.714844 5.855469 1.640625 5.59375 1.644531 Z M 9.785156 22.238281 C 9.445312 22.238281 9.117188 22.304688 8.800781 22.433594 C 8.488281 22.566406 8.207031 22.75 7.964844 22.992188 C 7.726562 23.234375 7.539062 23.511719 7.410156 23.828125 C 7.277344 24.144531 7.210938 24.472656 7.210938 24.8125 C 7.210938 25.15625 7.277344 25.484375 7.410156 25.796875 C 7.539062 26.113281 7.726562 26.390625 7.964844 26.632812 C 8.207031 26.875 8.488281 27.0625 8.800781 27.191406 C 9.117188 27.320312 9.445312 27.386719 9.785156 27.386719 C 10.128906 27.386719 10.457031 27.320312 10.773438 27.191406 C 11.085938 27.0625 11.367188 26.875 11.605469 26.632812 C 11.847656 26.390625 12.035156 26.113281 12.164062 25.796875 C 12.296875 25.484375 12.363281 25.15625 12.363281 24.8125 C 12.363281 24.472656 12.296875 24.144531 12.164062 23.828125 C 12.035156 23.511719 11.847656 23.234375 11.605469 22.992188 C 11.367188 22.75 11.085938 22.566406 10.773438 22.433594 C 10.457031 22.304688 10.128906 22.238281 9.785156 22.238281 Z M 22.660156 22.238281 C 22.316406 22.238281 21.988281 22.304688 21.671875 22.433594 C 21.359375 22.566406 21.078125 22.75 20.839844 22.992188 C 20.597656 23.234375 20.410156 23.511719 20.28125 23.828125 C 20.148438 24.144531 20.085938 24.472656 20.085938 24.8125 C 20.085938 25.15625 20.148438 25.484375 20.28125 25.796875 C 20.410156 26.113281 20.597656 26.390625 20.839844 26.632812 C 21.078125 26.875 21.359375 27.0625 21.671875 27.191406 C 21.988281 27.320312 22.316406 27.386719 22.660156 27.386719 C 23 27.386719 23.328125 27.320312 23.644531 27.191406 C 23.960938 27.0625 24.238281 26.875 24.480469 26.632812 C 24.71875 26.390625 24.90625 26.113281 25.035156 25.796875 C 25.167969 25.484375 25.234375 25.15625 25.234375 24.8125 C 25.234375 24.472656 25.167969 24.144531 25.035156 23.828125 C 24.90625 23.511719 24.71875 23.234375 24.480469 22.992188 C 24.238281 22.75 23.960938 22.566406 23.644531 22.433594 C 23.328125 22.304688 23 22.238281 22.660156 22.238281 Z M 22.660156 22.238281 " fill-opacity="1" fill-rule="nonzero"/></g></svg>